<svg version="1.1" viewBox="0 0 1231.8 1029.3" xmlns="http://www.w3.org/2000/svg">
 <g transform="scale(10)">
  <path d="m114.1 14.043c-2.7422 0-4.9609-2.2227-4.9609-4.9609 0-2.7422 2.2188-4.9609 4.9609-4.9609 2.7383 0 4.9609 2.2188 4.9609 4.9609 0 2.7383-2.2227 4.9609-4.9609 4.9609m-49.27 84.762c-2.7422 0-4.9609-2.2226-4.9609-4.9609 0-2.7422 2.2188-4.9609 4.9609-4.9609 2.7383 0 4.957 2.2188 4.957 4.9609 0 2.7383-2.2188 4.9609-4.957 4.9609m49.27-98.805c-5.0156 0-9.082 4.0664-9.082 9.082 0 1.0703 0.26953 2.0664 0.60937 3.0195l-42.605 73.023c-4.1172 0.86328-7.2734 4.3438-7.2734 8.7188 0 5.0156 4.0664 9.082 9.082 9.082 5.0117 0 9.0781-4.0664 9.0781-9.082 0-1.0078-0.26953-1.9297-0.57031-2.8359l42.82-73.262c3.9922-0.95703 7.0234-4.3789 7.0234-8.6641 0-5.0156-4.0664-9.082-9.082-9.082" fill="#0c544c"/>
  <g fill="#073551">
   <path d="m76.941 14.043c-2.7422 0-4.9609-2.2227-4.9609-4.9609 0-2.7422 2.2188-4.9609 4.9609-4.9609 2.7383 0 4.957 2.2188 4.957 4.9609 0 2.7383-2.2188 4.9609-4.957 4.9609m-49.273 84.762c-2.7383 0-4.9609-2.2226-4.9609-4.9609 0-2.7422 2.2226-4.9609 4.9609-4.9609 2.7422 0 4.9609 2.2188 4.9609 4.9609 0 2.7383-2.2188 4.9609-4.9609 4.9609m49.273-98.805c-5.0195 0-9.082 4.0664-9.082 9.082 0 1.0703 0.26953 2.0664 0.60938 3.0195l-42.605 73.023c-4.1211 0.86328-7.2774 4.3438-7.2774 8.7188 0 5.0156 4.0664 9.082 9.082 9.082 5.0156 0 9.082-4.0664 9.082-9.082 0-1.0078-0.26953-1.9297-0.57032-2.8359l42.82-73.262c3.9922-0.95703 7.0234-4.3789 7.0234-8.6641 0-5.0156-4.0703-9.082-9.082-9.082"/>
   <path d="m9.082 29.227c2.7383 0 4.9609 2.2227 4.9609 4.9609s-2.2227 4.9609-4.9609 4.9609c-2.7422 0-4.9609-2.2226-4.9609-4.9609s2.2188-4.9609 4.9609-4.9609m0 14.043c5.0156 0 9.082-4.0664 9.082-9.082 0-1.0039-0.27344-1.9297-0.57422-2.8359-1.2031-3.6055-4.5-6.2461-8.5078-6.2461-0.64063 0-1.2031 0.23828-1.8086 0.36718-4.1172 0.85938-7.2734 4.3398-7.2734 8.7148 0 5.0156 4.0664 9.082 9.082 9.082"/>
   <path d="m4.1211 65.922c0-2.7422 2.2227-4.9609 4.9609-4.9609s4.9609 2.2188 4.9609 4.9609c0 2.7383-2.2227 4.957-4.9609 4.957s-4.9609-2.2188-4.9609-4.957m14.043 0c0-1.0078-0.27344-1.9297-0.57422-2.8359-1.2031-3.6055-4.4961-6.2461-8.5078-6.2461-0.64063 0-1.2031 0.23828-1.8086 0.36328-4.1172 0.86328-7.2734 4.3438-7.2734 8.7188 0 5.0117 4.0664 9.082 9.082 9.082 5.0156 0 9.082-4.0703 9.082-9.082"/>
  </g>
 </g>
</svg>
